<svg data-v-fde0c5aa="" xmlns="http://www.w3.org/2000/svg" viewBox="0 0 300 300" class="font"><!----><defs data-v-fde0c5aa=""><!----></defs><rect data-v-fde0c5aa="" fill="#DEE5F3" x="0" y="0" width="300px" height="300px" class="logo-background-square"></rect><defs data-v-fde0c5aa=""><!----></defs><g data-v-fde0c5aa="" id="27e943bd-1060-49c2-aff8-18429c1260db" fill="#0C203C" transform="matrix(8.935824920572328,0,0,8.935824920572328,39.910641744469466,69.08610900862026)"><path d="M7.04 13.96L7.04 13.96L7.03 13.64L7.03 13.64Q6.80 13.66 6.68 13.68L6.68 13.68L6.68 13.68Q6.73 13.73 6.80 13.85L6.80 13.85L6.80 13.85Q6.92 14.01 6.98 14.01L6.98 14.01L6.98 14.01Q7.04 14.01 7.04 13.96ZM7.46 3.92L7.46 3.92L7.42 6.41L7.42 6.41Q7.42 8.96 7.66 12.26L7.66 12.26L7.66 12.26Q7.80 12.28 8.06 12.28L8.06 12.28L8.06 12.28Q8.32 12.28 8.48 12.14L8.48 12.14L8.48 12.14Q8.65 12.01 8.76 11.88L8.76 11.88L8.76 11.88Q8.86 11.75 8.97 11.75L8.97 11.75L8.97 11.75Q9.23 11.75 9.23 12.31L9.23 12.31L9.23 12.31Q9.00 12.63 8.56 12.95L8.56 12.95L8.56 12.95Q8.12 13.27 7.73 13.43L7.73 13.43L7.73 13.43Q7.77 14.22 7.77 14.73L7.77 14.73L7.77 14.73Q7.77 15.23 7.72 15.29L7.72 15.29L7.72 15.29Q7.67 15.34 7.52 15.42L7.52 15.42L7.52 15.42Q7.36 15.50 7.30 15.50L7.30 15.50L7.30 15.50Q7.24 15.50 7.22 15.48L7.22 15.48L7.22 15.48Q7.20 15.46 6.94 15.09L6.94 15.09L6.94 15.09Q6.31 14.14 5.96 13.68L5.96 13.68L5.96 13.68Q4.98 13.58 4.05 12.96L4.05 12.96L4.05 12.96Q4.06 13.33 4.06 13.93L4.06 13.93L4.06 13.93Q4.06 16.39 2.65 16.39L2.65 16.39L2.65 16.39Q2.11 16.39 1.46 15.79L1.46 15.79L1.46 15.79Q0.80 15.19 0.41 14.63L0.41 14.63L0.41 14.63Q0.01 14.07 0.01 14.01L0.01 14.01L0.01 14.01Q0.01 13.85 0.15 13.72L0.15 13.72L0.15 13.72Q1.33 12.78 1.43 12.78L1.43 12.78L1.43 12.78Q1.48 12.78 1.75 13.18L1.75 13.18L1.75 13.18Q2.02 13.58 2.40 13.98L2.40 13.98L2.40 13.98Q2.79 14.38 3.14 14.38L3.14 14.38L3.14 14.38Q3.42 14.38 3.42 13.43L3.42 13.43L3.42 13.43Q3.42 13.02 3.36 12.46L3.36 12.46L3.36 12.46Q2.52 11.73 1.96 10.83L1.96 10.83L1.96 10.83Q1.40 9.93 1.40 9.56L1.40 9.56L1.40 9.56Q1.40 9.20 1.64 8.89L1.64 8.89L1.64 8.89Q1.88 8.58 2.03 8.58L2.03 8.58L2.03 8.58Q2.18 8.58 2.29 8.63L2.29 8.63L2.29 8.63Q2.39 8.68 2.48 8.75L2.48 8.75L2.48 8.75Q2.58 8.82 2.80 8.99L2.80 8.99L2.80 8.99Q3.02 9.17 3.23 9.32L3.23 9.32L3.23 9.25L3.23 9.25Q3.22 8.88 3.15 7.46L3.15 7.46L3.15 7.46Q3.08 6.05 3.08 4.38L3.08 4.38L3.08 4.38Q3.08 2.72 3.19 2.32L3.19 2.32L3.19 2.32Q3.19 2.23 3.51 1.97L3.51 1.97L3.51 1.97Q3.82 1.72 3.93 1.72L3.93 1.72L3.93 1.72Q4.05 1.72 4.05 1.89L4.05 1.89L4.05 1.89Q4.05 1.90 4.00 2.25L4.00 2.25L4.00 2.25Q3.86 3.72 3.86 5.55L3.86 5.55L3.86 5.55Q3.86 7.38 3.96 10.02L3.96 10.02L3.96 10.02Q4.45 10.53 4.78 10.94L4.78 10.94L4.78 10.94Q5.11 11.35 5.13 11.37L5.13 11.37L5.13 11.37Q5.15 11.38 5.19 11.42L5.19 11.42L5.19 11.42Q5.24 11.45 5.30 11.50L5.30 11.50L5.30 11.50Q5.36 11.55 5.45 11.61L5.45 11.61L5.45 11.61Q5.54 11.66 5.66 11.72L5.66 11.72L5.66 11.72Q5.77 11.79 5.91 11.86L5.91 11.86L5.91 11.86Q6.05 11.93 6.22 11.98L6.22 11.98L6.22 11.98Q6.58 12.11 6.99 12.19L6.99 12.19L6.78 4.07L6.78 4.07Q6.78 3.88 7.18 3.65L7.18 3.65L7.18 3.65Q7.29 3.58 7.35 3.58L7.35 3.58L7.35 3.58Q7.46 3.58 7.46 3.92ZM12.35 12.66L12.35 12.66L12.35 12.66Q11.69 12.66 11.31 12.32L11.31 12.32L11.31 12.32Q10.93 11.98 10.88 11.47L10.88 11.47L10.88 11.47Q10.65 11.63 10.65 12.09L10.65 12.09L10.65 12.09Q10.65 12.54 10.91 12.89L10.91 12.89L10.91 12.89Q11.17 13.23 11.56 13.23L11.56 13.23L11.56 13.23Q11.94 13.23 12.15 13.03L12.15 13.03L12.15 13.03Q12.35 12.84 12.35 12.66ZM12.89 11.72L12.89 11.72L12.89 11.72Q12.94 11.84 13.00 11.84L13.00 11.84L13.00 11.84Q13.06 11.84 13.22 11.77L13.22 11.77L13.22 11.77Q13.37 11.69 13.48 11.69L13.48 11.69L13.48 11.69Q13.59 11.69 13.59 11.83L13.59 11.83L13.59 11.83Q13.59 11.97 13.29 12.29L13.29 12.29L13.29 12.29Q12.99 12.61 12.78 12.61L12.78 12.61L12.78 12.61Q12.49 13.41 11.81 14.09L11.81 14.09L11.81 14.09Q11.13 14.77 10.42 14.77L10.42 14.77L10.42 14.77Q9.91 14.77 9.58 14.44L9.58 14.44L9.58 14.44Q9.24 14.11 9.24 13.47L9.24 13.47L9.24 13.47Q9.24 12.84 9.77 12.09L9.77 12.09L9.77 12.09Q10.30 11.34 10.86 11.34L10.86 11.34L10.86 11.28L10.86 11.28Q10.86 10.98 11.07 10.79L11.07 10.79L11.07 10.79Q11.28 10.60 11.59 10.60L11.59 10.60L11.59 10.60Q12.54 10.60 12.89 11.72ZM11.03 9.83L11.03 9.83L11.03 9.83Q11.03 9.55 11.48 9.41L11.48 9.41L11.48 9.41Q12.17 9.11 13.72 8.50L13.72 8.50L13.72 8.50Q14 6.37 14.56 6.37L14.56 6.37L14.56 6.37Q14.92 6.37 14.92 7.53L14.92 7.53L14.92 7.53Q14.92 7.87 14.91 8.04L14.91 8.04L14.91 8.04Q17.04 7.22 17.77 7.04L17.77 7.04L17.77 7.04Q18.49 6.86 18.93 6.86L18.93 6.86L18.93 6.86Q19.59 6.86 19.59 7.34L19.59 7.34L19.59 7.34Q19.59 7.49 19.39 7.59L19.39 7.59L19.39 7.59Q18.52 8.02 18.31 8.02L18.31 8.02L18.31 8.02Q18.27 8.02 18.17 7.96L18.17 7.96L18.17 7.96Q18.07 7.90 17.95 7.90L17.95 7.90L17.95 7.90Q17.82 7.90 17.43 7.99L17.43 7.99L17.43 7.99Q16.63 8.20 14.81 8.81L14.81 8.81L14.81 8.81Q14.64 9.90 14.32 10.37L14.32 10.37L14.32 10.37Q14.38 11.97 14.74 12.53L14.74 12.53L14.74 12.53Q14.91 12.80 15.22 12.99L15.22 12.99L15.22 12.99Q15.54 13.19 16.00 13.19L16.00 13.19L16.00 13.19Q16.46 13.19 16.91 12.77L16.91 12.77L16.91 12.77Q17.00 12.68 17.05 12.68L17.05 12.68L17.05 12.68Q17.16 12.68 17.16 12.87L17.16 12.87L17.16 12.87Q17.16 13.45 16.38 14.05L16.38 14.05L16.38 14.05Q15.60 14.64 14.88 14.64L14.88 14.64L14.88 14.64Q13.47 14.64 13.47 12.35L13.47 12.35L13.47 12.35Q13.47 10.91 13.64 9.24L13.64 9.24L13.64 9.24Q12.47 9.69 11.92 9.97L11.92 9.97L11.92 9.97Q11.37 10.25 11.27 10.25L11.27 10.25L11.27 10.25Q11.17 10.25 11.10 10.11L11.10 10.11L11.10 10.11Q11.03 9.97 11.03 9.83ZM17.91 12.52L17.91 12.52Q18.14 12.43 18.39 11.98L18.39 11.98L18.39 11.98Q18.63 11.52 18.63 11.23L18.63 11.23L18.63 11.23Q18.63 10.93 18.41 10.92L18.41 10.92L18.41 10.92Q18.07 10.92 17.93 11.22L17.93 11.22L17.93 11.22Q17.79 11.52 17.79 11.88L17.79 11.88L17.79 11.88Q17.79 12.24 17.91 12.52L17.91 12.52ZM19.11 13.43L19.11 13.43L19.11 13.43Q19.50 13.43 19.76 13.25L19.76 13.25L19.76 13.25Q20.02 13.08 20.25 12.80L20.25 12.80L20.25 12.80Q20.48 12.52 20.61 12.52L20.61 12.52L20.61 12.52Q20.75 12.52 20.75 12.64L20.75 12.64L20.75 12.64Q20.75 12.73 20.69 12.84L20.69 12.84L20.69 12.84Q20.23 13.58 19.54 14.15L19.54 14.15L19.54 14.15Q18.86 14.71 18.09 14.71L18.09 14.71L18.09 14.71Q17.32 14.71 16.97 14.34L16.97 14.34L16.97 14.34Q16.63 13.97 16.63 13.36L16.63 13.36L16.63 13.36Q16.63 12.29 17.43 11.18L17.43 11.18L17.43 11.18Q18.23 10.07 19.08 10.07L19.08 10.07L19.08 10.07Q19.53 10.07 19.53 10.43L19.53 10.43L19.53 10.43Q19.53 10.92 19.22 11.45L19.22 11.45L19.22 11.45Q18.91 11.97 18.09 12.87L18.09 12.87L18.09 12.87Q18.47 13.43 19.11 13.43ZM21.90 6.37L21.90 6.37Q21.50 6.37 21.30 7.28L21.30 7.28L21.30 7.28Q21.10 8.19 21.10 9.13L21.10 9.13L21.10 9.13Q21.10 10.07 21.29 10.98L21.29 10.98L21.29 10.98Q22.26 9.53 22.26 7.11L22.26 7.11L22.26 7.11Q22.26 6.76 22.15 6.57L22.15 6.57L22.15 6.57Q22.05 6.37 21.90 6.37L21.90 6.37ZM23.25 13.17L23.25 13.17L23.25 13.17Q23.48 13.17 23.90 13.01L23.90 13.01L23.90 13.01Q24.32 12.84 24.47 12.84L24.47 12.84L24.47 12.84Q24.63 12.84 24.63 12.98L24.63 12.98L24.63 12.98Q24.63 13.30 23.75 13.92L23.75 13.92L23.75 13.92Q22.88 14.55 22.34 14.55L22.34 14.55L22.34 14.55Q21.81 14.55 21.48 14.38L21.48 14.38L21.48 14.38Q21.14 14.21 20.94 13.88L20.94 13.88L20.94 13.88Q20.73 13.55 20.61 13.23L20.61 13.23L20.61 13.23Q20.48 12.91 20.44 12.45L20.44 12.45L20.44 12.45Q20.36 11.73 20.36 10.78L20.36 10.78L20.36 10.78Q20.36 9.83 20.61 8.50L20.61 8.50L20.61 8.50Q20.86 7.17 21.31 6.24L21.31 6.24L21.31 6.24Q21.77 5.32 22.27 5.29L22.27 5.29L22.27 5.29Q22.41 5.31 22.50 5.34L22.50 5.34L22.50 5.34Q22.60 5.38 22.69 5.58L22.69 5.58L22.69 5.58Q22.78 5.78 22.78 6.16L22.78 6.16L22.78 6.16Q22.78 9.60 21.42 11.45L21.42 11.45L21.42 11.45Q21.98 13.17 23.25 13.17Z"></path></g><!----><!----></svg>